HIERARCHY
ROOT Hips
{
  OFFSET 0.0409142 18.4715 -3.15165
  CHANNELS 6 Xposition Yposition Zposition Zrotation Xrotation Yrotation
  JOINT LHipJoint
  {
    OFFSET 0 0 0
    CHANNELS 6 Xposition Yposition Zposition Zrotation Xrotation Yrotation
    JOINT LeftUpLeg
    {
      OFFSET 1.8 -1.4 0.085
      CHANNELS 6 Xposition Yposition Zposition Zrotation Xrotation Yrotation
      JOINT LeftLeg
      {
        OFFSET 2.215 -6 0
        CHANNELS 6 Xposition Yposition Zposition Zrotation Xrotation Yrotation
        JOINT LeftFoot
        {
          OFFSET 2.5 -6.9 0
          CHANNELS 6 Xposition Yposition Zposition Zrotation Xrotation Yrotation
          JOINT LeftToeBase
          {
            OFFSET 0.2 -0.5 1.95
            CHANNELS 6 Xposition Yposition Zposition Zrotation Xrotation Yrotation
            End Site
            {
              OFFSET 0 0 1
            }
          }
        }
      }
    }
  }
  JOINT RHipJoint
  {
    OFFSET 0 0 0
    CHANNELS 6 Xposition Yposition Zposition Zrotation Xrotation Yrotation
    JOINT RightUpLeg
    {
      OFFSET -1.8 -1.4 0.085
      CHANNELS 6 Xposition Yposition Zposition Zrotation Xrotation Yrotation
      JOINT RightLeg
      {
        OFFSET -2.215 -6 0
        CHANNELS 6 Xposition Yposition Zposition Zrotation Xrotation Yrotation
        JOINT RightFoot
        {
          OFFSET -2.5 -6.9 0
          CHANNELS 6 Xposition Yposition Zposition Zrotation Xrotation Yrotation
          JOINT RightToeBase
          {
            OFFSET -0.2 -0.5 1.95
            CHANNELS 6 Xposition Yposition Zposition Zrotation Xrotation Yrotation
            End Site
            {
              OFFSET 0 0 1
            }
          }
        }
      }
    }
  }
  JOINT LowerBack
  {
    OFFSET 0 0 0
    CHANNELS 6 Xposition Yposition Zposition Zrotation Xrotation Yrotation
    JOINT Spine
    {
      OFFSET -0.087 1.94 -0.2889
      CHANNELS 6 Xposition Yposition Zposition Zrotation Xrotation Yrotation
      JOINT Spine1
      {
        OFFSET 0 1.95 0.06
        CHANNELS 6 Xposition Yposition Zposition Zrotation Xrotation Yrotation
        JOINT Neck
        {
          OFFSET 0 0 0
          CHANNELS 6 Xposition Yposition Zposition Zrotation Xrotation Yrotation
          JOINT Neck1
          {
            OFFSET 0 1.6 0.34
            CHANNELS 6 Xposition Yposition Zposition Zrotation Xrotation Yrotation
            JOINT Head
            {
              OFFSET 0 1.667 -0.24
              CHANNELS 6 Xposition Yposition Zposition Zrotation Xrotation Yrotation
              End Site
              {
                OFFSET 0 1.686 -0.12
              }
            }
          }
        }
        JOINT LeftShoulder
        {
          OFFSET 0 0 0
          CHANNELS 6 Xposition Yposition Zposition Zrotation Xrotation Yrotation
          JOINT LeftArm
          {
            OFFSET 2.7 1.55 -0.73
            CHANNELS 6 Xposition Yposition Zposition Zrotation Xrotation Yrotation
            JOINT LeftForeArm
            {
              OFFSET 5.45 0 0
              CHANNELS 6 Xposition Yposition Zposition Zrotation Xrotation Yrotation
              JOINT LeftHand
              {
                OFFSET 3.45 0 0
                CHANNELS 6 Xposition Yposition Zposition Zrotation Xrotation Yrotation
                JOINT LeftFingerBase
                {
                  OFFSET 0 0 0
                  CHANNELS 6 Xposition Yposition Zposition Zrotation Xrotation Yrotation
                  JOINT LeftHandIndex1
                  {
                    OFFSET 0.75 0 0
                    CHANNELS 6 Xposition Yposition Zposition Zrotation Xrotation Yrotation
                    End Site
                    {
                      OFFSET 0.6 0 0
                    }
                  }
                }
                JOINT LThumb
                {
                  OFFSET 0 0 0
                  CHANNELS 6 Xposition Yposition Zposition Zrotation Xrotation Yrotation
                  End Site
                  {
                    OFFSET 0.59 0 0.59
                  }
                }
              }
            }
          }
        }
        JOINT RightShoulder
        {
          OFFSET 0 0 0
          CHANNELS 6 Xposition Yposition Zposition Zrotation Xrotation Yrotation
          JOINT RightArm
          {
            OFFSET -2.7 1.55 -0.73
            CHANNELS 6 Xposition Yposition Zposition Zrotation Xrotation Yrotation
            JOINT RightForeArm
            {
              OFFSET -5.45 0 0
              CHANNELS 6 Xposition Yposition Zposition Zrotation Xrotation Yrotation
              JOINT RightHand
              {
                OFFSET -3.45 0 0
                CHANNELS 6 Xposition Yposition Zposition Zrotation Xrotation Yrotation
                JOINT RightFingerBase
                {
                  OFFSET 0 0 0
                  CHANNELS 6 Xposition Yposition Zposition Zrotation Xrotation Yrotation
                  JOINT RightHandIndex1
                  {
                    OFFSET -0.75 0 0
                    CHANNELS 6 Xposition Yposition Zposition Zrotation Xrotation Yrotation
                    End Site
                    {
                      OFFSET -0.6 0 0
                    }
                  }
                }
                JOINT RThumb
                {
                  OFFSET 0 0 0
                  CHANNELS 6 Xposition Yposition Zposition Zrotation Xrotation Yrotation
                  End Site
                  {
                    OFFSET -0.59 0 0.59
                  }
                }
              }
            }
          }
        }
      }
    }
  }
}
MOTION
Frames:	9
Frame Time:	0.00833333
3.37952 18.3971 6.45867 14.7857 9.34853 -10.936 0 0 0 -7.95139e-16 1.59028e-15 -0 1.8 -1.4 0.085 -9.14103 -15.1029 -1.33857 2.215 -6 0 4.28601 5.66495 -1.58899 2.5 -6.9 0 -44.9468 19.6379 59.4544 0.2 -0.5 1.95 3.18055e-15 6.36111e-15 3.18055e-15 0 0 0 -7.95139e-16 1.59028e-15 -0 -1.8 -1.4 0.085 13.4209 -28.3676 4.95324 -2.215 -6 0 -0.109153 18.7044 -20.5879 -2.5 -6.9 8.88178e-16 -8.8778 -6.4483 1.97091 -0.2 -0.5 1.95 1.98785e-16 2.38542e-15 1.27222e-14 0 0 0 -7.95139e-16 1.59028e-15 -0 -0.087 1.94 -0.2889 14.1166 11.5715 -1.59593 1.77636e-15 1.95 0.06 -2.28385 -3.45792 -0.258244 0 0 0 3.44219 -6.97206 -30.9139 -1.77636e-15 1.6 0.34 15.6699 26.5269 -35.6561 0 1.667 -0.24 -55.6516 -5.15703 -107.804 0 0 0 31.1833 3.31327 20.4566 2.7 1.55 -0.73 -3.96491 75.8142 -78.373 5.45 1.77636e-15 3.55271e-15 67.4695 1.52804 -56.0596 3.45 0 0 45.5643 -9.15756 -25.7839 0 0 0 1.42885e-07 -2.74147e-07 1.72045e-06 0.75 -1.77636e-15 0 5.26779e-15 -2.38542e-15 -6.36111e-15 0 0 0 3.57812e-15 0 -0 0 0 0 10.2607 0.0173491 -3.40471 -2.7 1.55 -0.73 74.5912 -40.8113 16.6275 -5.45 0 -4.44089e-16 -0.966509 15.3471 0.000272951 -3.45 0 0 -18.4021 -1.80217 11.5351 0 0 0 8.51009e-07 1.92595e-05 -2.7768e-06 -0.75 0 0 2.38542e-15 0 6.36111e-15 0 0 0 3.18055e-15 6.36111e-15 1.59028e-15 
3.47086 18.3966 6.48756 15.2846 9.5209 -12.238 0 0 0 -1.59028e-15 3.18055e-15 3.18055e-15 1.8 -1.4 0.085 -9.3861 -15.214 -1.45016 2.215 -6 0 4.06526 5.97674 -1.87925 2.5 -6.9 0 -43.7782 17.3812 59.5291 0.2 -0.5 1.95 -1.58901e-30 9.54166e-15 9.54166e-15 0 0 0 -1.59028e-15 3.18055e-15 3.18055e-15 -1.8 -1.4 0.085 12.9135 -29.53 5.15155 -2.215 -6 0 0.164316 19.8657 -20.2534 -2.5 -6.9 -8.88178e-16 -8.38523 -6.71585 2.09088 -0.2 -0.5 1.95 1.59028e-15 1.59028e-15 6.36111e-15 0 0 0 -1.59028e-15 3.18055e-15 3.18055e-15 -0.087 1.94 -0.2889 15.0539 12.0758 -1.28492 0 1.95 0.06 -2.87779 -4.03341 0.288939 0 0 0 3.12096 -7.16037 -30.9096 0 1.6 0.34 15.2943 26.3675 -35.5113 0 1.667 -0.24 -56.0069 -5.15631 -107.949 0 0 0 34.0979 3.42245 19.3492 2.7 1.55 -0.73 -8.38627 78.9179 -72.412 5.45 0 0 67.4829 0.0496206 -55.1695 3.45 0 -3.55271e-15 46.6702 -9.45802 -25.4749 0 0 0 1.42885e-07 -2.74147e-07 1.72045e-06 0.75 1.77636e-15 -1.77636e-15 2.98177e-16 -1.98785e-15 -0 0 0 0 -6.06293e-15 1.19271e-15 -0 0 0 0 10.0578 0.00758503 -3.45981 -2.7 1.55 -0.73 74.2041 -41.112 16.4448 -5.45 -4.44089e-16 0 -1.01163 15.7626 0.000273206 -3.45 -4.44089e-16 4.44089e-16 -18.2143 -1.78157 11.2878 0 0 0 8.51009e-07 1.92595e-05 -2.7768e-06 -0.75 0 0 7.95139e-16 0 3.18055e-15 0 0 0 2.64834e-31 -9.54166e-15 1.59028e-15 
3.56034 18.3905 6.5175 15.8002 9.66465 -13.565 0 0 0 -3.97569e-16 3.18055e-15 1.59028e-15 1.8 -1.4 0.085 -9.58702 -15.3717 -1.50593 2.215 -6 0 3.75301 6.28998 -2.03032 2.5 -6.9 -8.88178e-16 -42.4401 15.8137 59.1021 0.2 -0.5 1.95 -3.18055e-15 3.18055e-15 3.18055e-15 0 0 0 -3.97569e-16 3.18055e-15 1.59028e-15 -1.8 -1.4 0.085 12.3583 -30.6812 5.31549 -2.215 -6 0 0.482451 21.0789 -19.7776 -2.5 -6.9 8.88178e-16 -7.7773 -7.05151 2.23715 -0.2 -0.5 1.95 -3.97569e-16 3.18055e-15 9.54166e-15 0 0 0 -3.97569e-16 3.18055e-15 1.59028e-15 -0.087 1.94 -0.2889 15.8675 12.7317 -0.981478 0 1.95 0.06 -3.3405 -4.67213 0.818101 0 0 0 2.79056 -7.35535 -30.8951 0 1.6 0.34 14.9053 26.2036 -35.3515 -8.88178e-16 1.667 -0.24 -56.3651 -5.19757 -108.084 0 0 0 37.2755 3.39077 17.5813 2.7 1.55 -0.73 -22.3886 82.1543 -57.0866 5.45 8.88178e-16 -3.55271e-15 67.6366 -0.969479 -54.2528 3.45 -4.44089e-16 0 46.7889 -9.55005 -25.7045 0 0 0 1.42885e-07 -2.74147e-07 1.72045e-06 0.75 -1.77636e-15 0 3.57812e-15 -5.96354e-15 -3.18055e-15 0 0 0 -9.93923e-16 -1.19271e-15 -0 0 0 0 9.78434 0.000593983 -3.50038 -2.7 1.55 -0.73 73.8789 -41.4519 16.3671 -5.45 0 -4.44089e-16 -1.10235 16.1117 0.000273309 -3.45 4.44089e-16 -4.44089e-16 -17.5965 -1.70606 10.8819 0 0 0 8.51009e-07 1.92595e-05 -2.7768e-06 -0.75 -4.44089e-16 0 3.97569e-15 0 4.77083e-15 0 0 0 1.59028e-15 9.54166e-15 1.59028e-15 
3.6486 18.3802 6.54708 16.3236 9.7894 -14.8999 0 0 0 -2.38542e-15 0 -0 1.8 -1.4 0.085 -9.74712 -15.5541 -1.51658 2.215 -6 0 3.37482 6.62856 -2.13558 2.5 -6.9 0 -40.9974 14.4824 58.3654 0.2 -0.5 1.95 3.53113e-31 -6.36111e-15 3.18055e-15 0 0 0 -2.38542e-15 0 -0 -1.8 -1.4 0.085 11.7811 -31.8507 5.47562 -2.215 -6 0 0.822471 22.3573 -19.2292 -2.5 -6.9 -8.88178e-16 -7.09107 -7.4224 2.399 -0.2 -0.5 1.95 7.95139e-16 0 6.36111e-15 0 0 0 -2.38542e-15 0 -0 -0.087 1.94 -0.2889 16.5894 13.5038 -0.687159 -1.77636e-15 1.95 0.06 -3.70856 -5.34711 1.33465 0 0 0 2.45913 -7.55892 -30.8743 1.77636e-15 1.6 0.34 14.5129 26.0321 -35.1827 1.77636e-15 1.667 -0.24 -56.72 -5.27213 -108.213 0 0 0 40.5712 3.16898 15.1642 2.7 1.55 -0.73 -58.5406 83.981 -19.8166 5.45 0 3.55271e-15 67.8185 -1.59356 -53.2623 3.45 4.44089e-16 0 46.345 -9.49744 -26.2201 0 0 0 1.42885e-07 -2.74147e-07 1.72045e-06 0.75 0 0 5.32991e-15 -6.95746e-16 -0 0 0 0 -1.52816e-15 9.44227e-16 -0 0 0 0 9.46971 -0.00424913 -3.5294 -2.7 1.55 -0.73 73.5906 -41.8112 16.3686 -5.45 8.88178e-16 0 -1.22155 16.4432 0.000273322 -3.45 -4.44089e-16 -4.44089e-16 -16.7661 -1.6042 10.3936 0 0 0 8.51009e-07 1.92595e-05 -2.7768e-06 -0.75 0 0 7.95139e-16 3.18055e-15 3.18055e-15 0 0 0 -1.59028e-15 -3.18055e-15 -1.59028e-15 
3.73584 18.3657 6.57443 16.8259 9.89354 -16.1988 0 0 0 5.1684e-15 3.18055e-15 -0 1.8 -1.4 0.085 -9.87166 -15.7476 -1.49359 2.215 -6 8.88178e-16 2.96882 7.02481 -2.32181 2.5 -6.9 -4.44089e-16 -39.5178 13.0992 57.514 0.2 -0.5 1.95 -6.36111e-15 0 -0 0 0 0 5.1684e-15 3.18055e-15 -0 -1.8 -1.4 0.085 11.2336 -33.0356 5.66213 -2.215 -6 0 1.16242 23.6664 -18.7318 -2.5 -6.9 0 -6.38669 -7.77346 2.55699 -0.2 -0.5 1.95 7.95139e-16 3.18055e-15 1.27222e-14 0 0 0 5.1684e-15 3.18055e-15 -0 -0.087 1.94 -0.2889 17.2556 14.3478 -0.419177 0 1.95 0.06 -4.00592 -5.99893 1.82935 0 0 0 2.13748 -7.77699 -30.8504 0 1.6 0.34 14.1294 25.8457 -35.0106 -8.88178e-16 1.667 -0.24 -57.0616 -5.37853 -108.345 0 0 0 43.711 2.58361 11.9764 2.7 1.55 -0.73 -99.5344 81.7738 21.9909 5.45 8.88178e-16 -3.55271e-15 68.029 -1.93885 -52.2056 3.45 4.44089e-16 3.55271e-15 46.0048 -9.4304 -26.6042 0 0 0 1.42885e-07 -2.74147e-07 1.72045e-06 0.75 -1.77636e-15 0 2.78299e-15 -3.77691e-15 -6.36111e-15 0 0 0 -1.78906e-15 -1.98785e-16 -3.18055e-15 0 0 0 9.14164 -0.00729495 -3.54816 -2.7 1.55 -0.73 73.3301 -42.1654 16.4392 -5.45 8.88178e-16 -4.44089e-16 -1.35398 16.7677 0.000273257 -3.45 0 0 -16.0001 -1.50942 9.93738 0 0 0 8.51009e-07 1.92595e-05 -2.7768e-06 -0.75 0 4.44089e-16 -5.29669e-31 9.54166e-15 3.18055e-15 0 0 0 0 0 -0 
3.82224 18.347 6.59773 17.2776 9.97453 -17.4206 0 0 0 -3.97569e-16 6.36111e-15 -0 1.8 -1.4 0.085 -9.96599 -15.9373 -1.44766 2.215 -6 0 2.57724 7.51299 -2.71628 2.5 -6.9 0 -38.0585 11.4058 56.7751 0.2 -0.5 1.95 -3.18055e-15 -3.18055e-15 9.54166e-15 0 0 0 -3.97569e-16 6.36111e-15 -0 -1.8 -1.4 0.085 10.7693 -34.2321 5.90646 -2.215 -6 0 1.49474 24.973 -18.409 -2.5 -6.9 -4.44089e-16 -5.7207 -8.05012 2.69185 -0.2 -0.5 1.95 2.78299e-15 3.18055e-15 1.27222e-14 0 0 0 -3.97569e-16 6.36111e-15 -0 -0.087 1.94 -0.2889 17.9004 15.2241 -0.194804 -3.55271e-15 1.95 0.06 -4.25519 -6.57073 2.29239 0 0 0 1.83572 -8.01495 -30.8263 -1.77636e-15 1.6 0.34 13.7664 25.6381 -34.84 8.88178e-16 1.667 -0.24 -57.3802 -5.51685 -108.486 0 0 0 46.3834 1.43756 7.87196 2.7 1.55 -0.73 -117.929 76.5058 40.8332 5.45 0 0 68.2675 -2.12878 -51.1003 3.45 0 -3.55271e-15 46.4107 -9.47439 -26.4524 0 0 0 1.42885e-07 -2.74147e-07 1.72045e-06 0.75 -1.77636e-15 0 4.37326e-15 -2.78299e-15 -6.36111e-15 0 0 0 4.96962e-16 1.98785e-15 -0 0 0 0 8.82707 -0.00880259 -3.55736 -2.7 1.55 -0.73 73.089 -42.4896 16.5713 -5.45 0 0 -1.4845 17.0914 0.000273122 -3.45 0 0 -15.5659 -1.45397 9.61954 0 0 0 8.51009e-07 1.92595e-05 -2.7768e-06 -0.75 4.44089e-16 0 -8.82781e-32 3.18055e-15 1.59028e-15 0 0 0 7.95139e-16 3.18055e-15 3.18055e-15 
3.90765 18.3246 6.61738 17.6644 10.0047 -18.5901 0 0 0 1.19271e-15 1.59028e-15 -0 1.8 -1.4 0.085 -10.032 -16.0893 -1.37096 2.215 -6 0 2.22384 8.14244 -3.37509 2.5 -6.9 0 -36.6083 9.26493 56.1678 0.2 -0.5 1.95 3.18055e-15 3.18055e-15 -3.18055e-15 0 0 0 1.19271e-15 1.59028e-15 -0 -1.8 -1.4 0.085 10.3966 -35.4313 6.21902 -2.215 -6 0 1.84835 26.3087 -18.2564 -2.5 -6.9 0 -5.04944 -8.23419 2.80028 -0.2 -0.5 1.95 -3.97569e-15 0 6.36111e-15 0 0 0 1.19271e-15 1.59028e-15 -0 -0.087 1.94 -0.2889 18.4865 16.1818 -0.0162947 -1.77636e-15 1.95 0.06 -4.41208 -7.07383 2.71596 0 0 0 1.54855 -8.26728 -30.7948 0 1.6 0.34 13.4163 25.4163 -34.663 0 1.667 -0.24 -57.6776 -5.70911 -108.624 0 0 0 48.7011 -0.5696 2.36179 2.7 1.55 -0.73 -126.58 69.4052 49.6686 5.45 0 0 68.4099 -2.16512 -49.9222 3.45 0 0 47.5433 -9.61047 -25.7648 0 0 0 1.42885e-07 -2.74147e-07 1.72045e-06 0.75 -1.77636e-15 0 -1.78906e-15 -3.97569e-15 -9.54166e-15 0 0 0 4.96962e-15 -2.38542e-15 -3.18055e-15 0 0 0 8.52557 -0.00767567 -3.55019 -2.7 1.55 -0.73 72.881 -42.7701 16.8103 -5.45 8.88178e-16 8.88178e-16 -1.60782 17.3557 0.000272827 -3.45 4.44089e-16 0 -15.4147 -1.42904 9.36582 0 0 0 8.51009e-07 1.92595e-05 -2.7768e-06 -0.75 -4.44089e-16 0 2.38542e-15 -3.18055e-15 3.18055e-15 0 0 0 7.95139e-16 -3.18055e-15 -0 
3.99212 18.2981 6.63399 18.0099 10.0126 -19.7064 0 0 0 0 0 -0 1.8 -1.4 0.085 -10.0645 -16.2419 -1.26454 2.215 -6 8.88178e-16 1.88273 8.84821 -4.18286 2.5 -6.9 0 -35.1606 6.93203 55.6353 0.2 -0.5 1.95 1.59028e-15 -3.18055e-15 -0 0 0 0 0 0 -0 -1.8 -1.4 0.085 10.089 -36.6418 6.58002 -2.215 -6 0 2.22356 27.6594 -18.221 -2.5 -6.9 4.44089e-16 -4.38296 -8.3713 2.89531 -0.2 -0.5 1.95 -3.97569e-16 2.38542e-15 1.59028e-14 0 0 0 0 0 -0 -0.087 1.94 -0.2889 19.0315 17.1986 0.127256 0 1.95 0.06 -4.50929 -7.52884 3.11187 0 0 0 1.27542 -8.53614 -30.7611 -1.77636e-15 1.6 0.34 13.0801 25.1774 -34.4845 -8.88178e-16 1.667 -0.24 -57.958 -5.93785 -108.763 0 0 0 50.2178 -3.06616 -4.04296 2.7 1.55 -0.73 -130.992 61.3116 54.3634 5.45 8.88178e-16 0 68.5373 -1.94105 -48.6786 3.45 0 0 49.079 -9.78725 -24.758 0 0 0 1.42885e-07 -2.74147e-07 1.72045e-06 0.75 0 0 1.98785e-15 -3.97569e-15 3.18055e-15 0 0 0 2.78299e-15 0 -0 0 0 0 8.22306 -0.0047517 -3.53233 -2.7 1.55 -0.73 72.7019 -43.0312 17.1219 -5.45 -8.88178e-16 0 -1.73679 17.6094 0.000272442 -3.45 4.44089e-16 -1.33227e-15 -15.4478 -1.42553 9.18521 0 0 0 8.51009e-07 1.92595e-05 -2.7768e-06 -0.75 0 4.44089e-16 3.53113e-31 -6.36111e-15 3.18055e-15 0 0 0 -8.82781e-32 -3.18055e-15 -1.59028e-15 
4.07578 18.2666 6.64769 18.3468 10.0475 -20.7447 0 0 0 -7.95139e-16 1.59028e-15 3.18055e-15 1.8 -1.4 0.085 -10.0572 -16.4565 -1.13671 2.215 -6 8.88178e-16 1.51241 9.53313 -4.99868 2.5 -6.9 -8.88178e-16 -33.7224 4.72525 55.1019 0.2 -0.5 1.95 -1.59028e-15 -3.18055e-15 3.18055e-15 0 0 0 -7.95139e-16 1.59028e-15 3.18055e-15 -1.8 -1.4 0.085 9.82234 -37.8783 6.96733 -2.215 -6 0 2.60353 28.9812 -18.2703 -2.5 -6.9 4.44089e-16 -3.77177 -8.51341 2.9898 -0.2 -0.5 1.95 3.97569e-16 0 6.36111e-15 0 0 0 -7.95139e-16 1.59028e-15 3.18055e-15 -0.087 1.94 -0.2889 19.5866 18.2103 0.245873 3.55271e-15 1.95 0.06 -4.61696 -7.9402 3.49639 0 0 0 1.02101 -8.82846 -30.736 0 1.6 0.34 12.7659 24.912 -34.316 -8.88178e-16 1.667 -0.24 -58.2236 -6.16897 -108.922 0 0 0 50.4932 -5.42948 -10.5002 2.7 1.55 -0.73 -132.918 53.123 56.9782 5.45 -8.88178e-16 3.55271e-15 68.8098 -1.34982 -47.4018 3.45 8.88178e-16 0 50.7951 -9.98439 -23.5937 0 0 0 1.42885e-07 -2.74147e-07 1.72045e-06 0.75 8.88178e-16 -3.55271e-15 -2.38542e-15 0 -3.18055e-15 0 0 0 3.57812e-15 -1.59028e-15 6.36111e-15 0 0 0 7.9094 -0.00181238 -3.51471 -2.7 1.55 -0.73 72.5359 -43.3044 17.4365 -5.45 8.88178e-16 0 -1.88618 17.9468 0.000272107 -3.45 -4.44089e-16 4.44089e-16 -15.6397 -1.44541 9.15679 0 0 0 8.51009e-07 1.92595e-05 -2.7768e-06 -0.75 -4.44089e-16 -4.44089e-16 3.18055e-15 3.18055e-15 4.77083e-15 0 0 0 -1.59028e-15 -3.18055e-15 1.59028e-15 
